<mxfile host="app.diagrams.net" modified="2023-12-29T21:00:55.600Z" agent="Mozilla/5.0 (Macintosh; Intel Mac OS X 10_15_7) AppleWebKit/537.36 (KHTML, like Gecko) Chrome/120.0.0.0 Safari/537.36" etag="vTKJMYfgmb2_BqRVeMv8" version="22.1.16" type="github">
  <diagram name="PÃ¡gina-1" id="baaax6Z8dfIzUIeogOmC">
    <mxGraphModel dx="954" dy="606" grid="1" gridSize="10" guides="1" tooltips="1" connect="1" arrows="1" fold="1" page="1" pageScale="1" pageWidth="827" pageHeight="1169" math="0" shadow="0">
      <root>
        <mxCell id="0" />
        <mxCell id="1" parent="0" />
        <mxCell id="uoC-D4_zJCUfr7f5D_ew-11" style="edgeStyle=orthogonalEdgeStyle;rounded=0;orthogonalLoop=1;jettySize=auto;html=1;exitX=0.5;exitY=1;exitDx=0;exitDy=0;" edge="1" parent="1" source="uoC-D4_zJCUfr7f5D_ew-1" target="uoC-D4_zJCUfr7f5D_ew-6">
          <mxGeometry relative="1" as="geometry" />
        </mxCell>
        <mxCell id="uoC-D4_zJCUfr7f5D_ew-12" value="" style="edgeStyle=orthogonalEdgeStyle;rounded=0;orthogonalLoop=1;jettySize=auto;html=1;" edge="1" parent="1" source="uoC-D4_zJCUfr7f5D_ew-1" target="uoC-D4_zJCUfr7f5D_ew-8">
          <mxGeometry relative="1" as="geometry" />
        </mxCell>
        <mxCell id="uoC-D4_zJCUfr7f5D_ew-1" value="ACCOUNT" style="rounded=1;whiteSpace=wrap;html=1;" vertex="1" parent="1">
          <mxGeometry x="110" y="70" width="120" height="60" as="geometry" />
        </mxCell>
        <mxCell id="uoC-D4_zJCUfr7f5D_ew-14" style="edgeStyle=orthogonalEdgeStyle;rounded=0;orthogonalLoop=1;jettySize=auto;html=1;exitX=0.5;exitY=1;exitDx=0;exitDy=0;entryX=0.5;entryY=0;entryDx=0;entryDy=0;" edge="1" parent="1" source="uoC-D4_zJCUfr7f5D_ew-2" target="uoC-D4_zJCUfr7f5D_ew-5">
          <mxGeometry relative="1" as="geometry" />
        </mxCell>
        <mxCell id="uoC-D4_zJCUfr7f5D_ew-2" value="LEAD" style="rounded=1;whiteSpace=wrap;html=1;" vertex="1" parent="1">
          <mxGeometry x="300" y="178" width="120" height="60" as="geometry" />
        </mxCell>
        <mxCell id="uoC-D4_zJCUfr7f5D_ew-3" value="ASSET" style="rounded=1;whiteSpace=wrap;html=1;" vertex="1" parent="1">
          <mxGeometry x="110" y="393" width="120" height="60" as="geometry" />
        </mxCell>
        <mxCell id="uoC-D4_zJCUfr7f5D_ew-4" value="OPPORTUNITY" style="rounded=1;whiteSpace=wrap;html=1;" vertex="1" parent="1">
          <mxGeometry x="110" y="178" width="120" height="60" as="geometry" />
        </mxCell>
        <mxCell id="uoC-D4_zJCUfr7f5D_ew-5" value="PRODUCT" style="rounded=1;whiteSpace=wrap;html=1;" vertex="1" parent="1">
          <mxGeometry x="300" y="285" width="120" height="60" as="geometry" />
        </mxCell>
        <mxCell id="uoC-D4_zJCUfr7f5D_ew-6" value="CASE" style="rounded=1;whiteSpace=wrap;html=1;" vertex="1" parent="1">
          <mxGeometry x="110" y="500" width="120" height="60" as="geometry" />
        </mxCell>
        <mxCell id="uoC-D4_zJCUfr7f5D_ew-7" value="PRICEBOOK" style="rounded=1;whiteSpace=wrap;html=1;" vertex="1" parent="1">
          <mxGeometry x="490" y="70" width="120" height="60" as="geometry" />
        </mxCell>
        <mxCell id="uoC-D4_zJCUfr7f5D_ew-8" value="CONTACT" style="rounded=1;whiteSpace=wrap;html=1;" vertex="1" parent="1">
          <mxGeometry x="300" y="70" width="120" height="60" as="geometry" />
        </mxCell>
        <mxCell id="uoC-D4_zJCUfr7f5D_ew-9" value="QUOTE" style="rounded=1;whiteSpace=wrap;html=1;" vertex="1" parent="1">
          <mxGeometry x="110" y="285" width="120" height="60" as="geometry" />
        </mxCell>
        <mxCell id="uoC-D4_zJCUfr7f5D_ew-13" style="edgeStyle=orthogonalEdgeStyle;rounded=0;orthogonalLoop=1;jettySize=auto;html=1;" edge="1" parent="1" source="uoC-D4_zJCUfr7f5D_ew-8">
          <mxGeometry relative="1" as="geometry">
            <mxPoint x="360" y="180" as="targetPoint" />
          </mxGeometry>
        </mxCell>
      </root>
    </mxGraphModel>
  </diagram>
</mxfile>
